<svg xmlns="http://www.w3.org/2000/svg" version="1.1" xmlns:xlink="http://www.w3.org/1999/xlink" xmlns:svgjs="http://svgjs.dev/svgjs" width="1440" height="560" preserveAspectRatio="none" viewBox="0 0 1440 560"><g mask="url(&quot;#SvgjsMask1102&quot;)" fill="none"><rect width="1440" height="560" x="0" y="0" fill="#0e2a47"></rect><g mask="url(&quot;#SvgjsMask1103&quot;)"><path d="M1164 252L1308 396L1308 516L1260 564L1116 564" stroke-width="4" stroke="rgba(21, 98, 181, 1)"></path><path d="M1158 252 a6 6 0 1 0 12 0 a6 6 0 1 0 -12 0zM1110 564 a6 6 0 1 0 12 0 a6 6 0 1 0 -12 0z" fill="rgba(21, 98, 181, 1)"></path><path d="M804 132L732 132L540 324L348 324" stroke-width="4" stroke="rgba(21, 98, 181, 1)"></path><path d="M798 132 a6 6 0 1 0 12 0 a6 6 0 1 0 -12 0zM342 324 a6 6 0 1 0 12 0 a6 6 0 1 0 -12 0z" fill="rgba(21, 98, 181, 1)"></path><path d="M732 396L636 396L612 420L564 420L540 444L372 444L276 540" stroke-width="4" stroke="rgba(21, 98, 181, 1)"></path><path d="M726 396 a6 6 0 1 0 12 0 a6 6 0 1 0 -12 0zM270 540 a6 6 0 1 0 12 0 a6 6 0 1 0 -12 0z" fill="rgba(21, 98, 181, 1)"></path><path d="M516 204L324 12L84 12L60 36" stroke-width="4" stroke="rgba(21, 98, 181, 1)"></path><path d="M510 204 a6 6 0 1 0 12 0 a6 6 0 1 0 -12 0zM54 36 a6 6 0 1 0 12 0 a6 6 0 1 0 -12 0z" fill="rgba(21, 98, 181, 1)"></path><path d="M36 300L276 60L348 60L492 204" stroke-width="4" stroke="rgba(21, 98, 181, 1)"></path><path d="M30 300 a6 6 0 1 0 12 0 a6 6 0 1 0 -12 0zM486 204 a6 6 0 1 0 12 0 a6 6 0 1 0 -12 0z" fill="rgba(21, 98, 181, 1)"></path><path d="M60 60L12 60" stroke-width="4" stroke="rgba(21, 98, 181, 1)"></path><path d="M54 60 a6 6 0 1 0 12 0 a6 6 0 1 0 -12 0zM6 60 a6 6 0 1 0 12 0 a6 6 0 1 0 -12 0z" fill="rgba(21, 98, 181, 1)"></path><path d="M108 324L84 348L84 420L12 492L12 564" stroke-width="4" stroke="rgba(21, 98, 181, 1)"></path><path d="M102 324 a6 6 0 1 0 12 0 a6 6 0 1 0 -12 0zM6 564 a6 6 0 1 0 12 0 a6 6 0 1 0 -12 0z" fill="rgba(21, 98, 181, 1)"></path><path d="M900 84L564 84L516 132L492 132L444 84" stroke-width="4" stroke="rgba(21, 98, 181, 1)"></path><path d="M894 84 a6 6 0 1 0 12 0 a6 6 0 1 0 -12 0zM438 84 a6 6 0 1 0 12 0 a6 6 0 1 0 -12 0z" fill="rgba(21, 98, 181, 1)"></path><path d="M1380 12L1188 204L1188 252L1308 372L1404 372" stroke-width="4" stroke="rgba(21, 98, 181, 1)"></path><path d="M1374 12 a6 6 0 1 0 12 0 a6 6 0 1 0 -12 0zM1398 372 a6 6 0 1 0 12 0 a6 6 0 1 0 -12 0z" fill="rgba(21, 98, 181, 1)"></path><path d="M900 12L1260 12L1284 36L1332 36L1356 12" stroke-width="4" stroke="rgba(21, 98, 181, 1)"></path><path d="M894 12 a6 6 0 1 0 12 0 a6 6 0 1 0 -12 0zM1350 12 a6 6 0 1 0 12 0 a6 6 0 1 0 -12 0z" fill="rgba(21, 98, 181, 1)"></path><path d="M132 108L12 108" stroke-width="4" stroke="rgba(21, 98, 181, 1)"></path><path d="M126 108 a6 6 0 1 0 12 0 a6 6 0 1 0 -12 0zM6 108 a6 6 0 1 0 12 0 a6 6 0 1 0 -12 0z" fill="rgba(21, 98, 181, 1)"></path><path d="M876 324L732 180L708 180L588 300L588 396" stroke-width="4" stroke="rgba(21, 98, 181, 1)"></path><path d="M870 324 a6 6 0 1 0 12 0 a6 6 0 1 0 -12 0zM582 396 a6 6 0 1 0 12 0 a6 6 0 1 0 -12 0z" fill="rgba(21, 98, 181, 1)"></path><path d="M1380 180L1380 36L1404 12L1428 12" stroke-width="4" stroke="rgba(21, 98, 181, 1)"></path><path d="M1374 180 a6 6 0 1 0 12 0 a6 6 0 1 0 -12 0zM1422 12 a6 6 0 1 0 12 0 a6 6 0 1 0 -12 0z" fill="rgba(21, 98, 181, 1)"></path><path d="M1236 108L1260 108L1284 84L1284 60L1260 36L1236 36L900 372" stroke-width="4" stroke="rgba(21, 98, 181, 1)"></path><path d="M1230 108 a6 6 0 1 0 12 0 a6 6 0 1 0 -12 0zM894 372 a6 6 0 1 0 12 0 a6 6 0 1 0 -12 0z" fill="rgba(21, 98, 181, 1)"></path><path d="M756 372L756 228L732 204L708 204L612 300L612 396" stroke-width="4" stroke="rgba(21, 98, 181, 1)"></path><path d="M750 372 a6 6 0 1 0 12 0 a6 6 0 1 0 -12 0zM606 396 a6 6 0 1 0 12 0 a6 6 0 1 0 -12 0z" fill="rgba(21, 98, 181, 1)"></path><path d="M396 564L348 516L348 492L372 468L468 468L564 564L732 564" stroke-width="4" stroke="rgba(21, 98, 181, 1)"></path><path d="M390 564 a6 6 0 1 0 12 0 a6 6 0 1 0 -12 0zM726 564 a6 6 0 1 0 12 0 a6 6 0 1 0 -12 0z" fill="rgba(21, 98, 181, 1)"></path><path d="M660 12L660 60" stroke-width="4" stroke="rgba(21, 98, 181, 1)"></path><path d="M654 12 a6 6 0 1 0 12 0 a6 6 0 1 0 -12 0zM654 60 a6 6 0 1 0 12 0 a6 6 0 1 0 -12 0z" fill="rgba(21, 98, 181, 1)"></path><path d="M780 492L732 540L564 540L492 468" stroke-width="4" stroke="rgba(21, 98, 181, 1)"></path><path d="M774 492 a6 6 0 1 0 12 0 a6 6 0 1 0 -12 0zM486 468 a6 6 0 1 0 12 0 a6 6 0 1 0 -12 0z" fill="rgba(21, 98, 181, 1)"></path><path d="M420 420L204 420L132 348L132 228L180 180" stroke-width="4" stroke="rgba(21, 98, 181, 1)"></path><path d="M414 420 a6 6 0 1 0 12 0 a6 6 0 1 0 -12 0zM174 180 a6 6 0 1 0 12 0 a6 6 0 1 0 -12 0z" fill="rgba(21, 98, 181, 1)"></path><path d="M180 84L180 36" stroke-width="4" stroke="rgba(21, 98, 181, 1)"></path><path d="M174 84 a6 6 0 1 0 12 0 a6 6 0 1 0 -12 0zM174 36 a6 6 0 1 0 12 0 a6 6 0 1 0 -12 0z" fill="rgba(21, 98, 181, 1)"></path><path d="M1020 204L780 204L732 156" stroke-width="4" stroke="rgba(21, 98, 181, 1)"></path><path d="M1014 204 a6 6 0 1 0 12 0 a6 6 0 1 0 -12 0zM726 156 a6 6 0 1 0 12 0 a6 6 0 1 0 -12 0z" fill="rgba(21, 98, 181, 1)"></path><path d="M156 420L252 516L252 564" stroke-width="4" stroke="rgba(21, 98, 181, 1)"></path><path d="M150 420 a6 6 0 1 0 12 0 a6 6 0 1 0 -12 0zM246 564 a6 6 0 1 0 12 0 a6 6 0 1 0 -12 0z" fill="rgba(21, 98, 181, 1)"></path><path d="M1188 444L1260 516L1284 516" stroke-width="4" stroke="rgba(21, 98, 181, 1)"></path><path d="M1182 444 a6 6 0 1 0 12 0 a6 6 0 1 0 -12 0zM1278 516 a6 6 0 1 0 12 0 a6 6 0 1 0 -12 0z" fill="rgba(21, 98, 181, 1)"></path><path d="M84 300L12 372L12 396L36 420L60 420" stroke-width="4" stroke="rgba(21, 98, 181, 1)"></path><path d="M78 300 a6 6 0 1 0 12 0 a6 6 0 1 0 -12 0zM54 420 a6 6 0 1 0 12 0 a6 6 0 1 0 -12 0z" fill="rgba(21, 98, 181, 1)"></path><path d="M564 180L564 108" stroke-width="4" stroke="rgba(21, 98, 181, 1)"></path><path d="M558 180 a6 6 0 1 0 12 0 a6 6 0 1 0 -12 0zM558 108 a6 6 0 1 0 12 0 a6 6 0 1 0 -12 0z" fill="rgba(21, 98, 181, 1)"></path><path d="M348 228L348 84" stroke-width="4" stroke="rgba(21, 98, 181, 1)"></path><path d="M342 228 a6 6 0 1 0 12 0 a6 6 0 1 0 -12 0zM342 84 a6 6 0 1 0 12 0 a6 6 0 1 0 -12 0z" fill="rgba(21, 98, 181, 1)"></path><path d="M996 252L972 228L804 228" stroke-width="4" stroke="rgba(21, 98, 181, 1)"></path><path d="M990 252 a6 6 0 1 0 12 0 a6 6 0 1 0 -12 0zM798 228 a6 6 0 1 0 12 0 a6 6 0 1 0 -12 0z" fill="rgba(21, 98, 181, 1)"></path><path d="M1092 228L1068 228L876 420L780 420L756 396" stroke-width="4" stroke="rgba(21, 98, 181, 1)"></path><path d="M1086 228 a6 6 0 1 0 12 0 a6 6 0 1 0 -12 0zM750 396 a6 6 0 1 0 12 0 a6 6 0 1 0 -12 0z" fill="rgba(21, 98, 181, 1)"></path><path d="M1044 324L1236 132" stroke-width="4" stroke="rgba(21, 98, 181, 1)"></path><path d="M1038 324 a6 6 0 1 0 12 0 a6 6 0 1 0 -12 0zM1230 132 a6 6 0 1 0 12 0 a6 6 0 1 0 -12 0z" fill="rgba(21, 98, 181, 1)"></path><path d="M1092 516L1212 396L1284 396" stroke-width="4" stroke="rgba(21, 98, 181, 1)"></path><path d="M1086 516 a6 6 0 1 0 12 0 a6 6 0 1 0 -12 0zM1278 396 a6 6 0 1 0 12 0 a6 6 0 1 0 -12 0z" fill="rgba(21, 98, 181, 1)"></path><path d="M1020 564L1188 396L1188 300L1140 252" stroke-width="4" stroke="rgba(21, 98, 181, 1)"></path><path d="M1014 564 a6 6 0 1 0 12 0 a6 6 0 1 0 -12 0zM1134 252 a6 6 0 1 0 12 0 a6 6 0 1 0 -12 0z" fill="rgba(21, 98, 181, 1)"></path><path d="M1332 516L1356 492L1428 492" stroke-width="4" stroke="rgba(21, 98, 181, 1)"></path><path d="M1326 516 a6 6 0 1 0 12 0 a6 6 0 1 0 -12 0zM1422 492 a6 6 0 1 0 12 0 a6 6 0 1 0 -12 0z" fill="rgba(21, 98, 181, 1)"></path><path d="M492 396L468 420L444 420L372 348L156 348" stroke-width="4" stroke="rgba(21, 98, 181, 1)"></path><path d="M486 396 a6 6 0 1 0 12 0 a6 6 0 1 0 -12 0zM150 348 a6 6 0 1 0 12 0 a6 6 0 1 0 -12 0z" fill="rgba(21, 98, 181, 1)"></path><path d="M228 180L228 132L252 108L324 108" stroke-width="4" stroke="rgba(21, 98, 181, 1)"></path><path d="M222 180 a6 6 0 1 0 12 0 a6 6 0 1 0 -12 0zM318 108 a6 6 0 1 0 12 0 a6 6 0 1 0 -12 0z" fill="rgba(21, 98, 181, 1)"></path><path d="M828 132L876 180L1068 180L1212 36" stroke-width="4" stroke="rgba(21, 98, 181, 1)"></path><path d="M822 132 a6 6 0 1 0 12 0 a6 6 0 1 0 -12 0zM1206 36 a6 6 0 1 0 12 0 a6 6 0 1 0 -12 0z" fill="rgba(21, 98, 181, 1)"></path><path d="M948 132L996 132L1020 156L1068 156L1188 36" stroke-width="4" stroke="rgba(21, 98, 181, 1)"></path><path d="M942 132 a6 6 0 1 0 12 0 a6 6 0 1 0 -12 0zM1182 36 a6 6 0 1 0 12 0 a6 6 0 1 0 -12 0z" fill="rgba(21, 98, 181, 1)"></path><path d="M804 180L780 156L756 156" stroke-width="4" stroke="rgba(21, 98, 181, 1)"></path><path d="M798 180 a6 6 0 1 0 12 0 a6 6 0 1 0 -12 0zM750 156 a6 6 0 1 0 12 0 a6 6 0 1 0 -12 0z" fill="rgba(21, 98, 181, 1)"></path><path d="M1164 396L1044 516L900 516L876 540L876 564" stroke-width="4" stroke="rgba(21, 98, 181, 1)"></path><path d="M1158 396 a6 6 0 1 0 12 0 a6 6 0 1 0 -12 0zM870 564 a6 6 0 1 0 12 0 a6 6 0 1 0 -12 0z" fill="rgba(21, 98, 181, 1)"></path><path d="M108 252L108 300" stroke-width="4" stroke="rgba(21, 98, 181, 1)"></path><path d="M102 252 a6 6 0 1 0 12 0 a6 6 0 1 0 -12 0zM102 300 a6 6 0 1 0 12 0 a6 6 0 1 0 -12 0z" fill="rgba(21, 98, 181, 1)"></path><path d="M60 468L84 468L108 444L108 348" stroke-width="4" stroke="rgba(21, 98, 181, 1)"></path><path d="M54 468 a6 6 0 1 0 12 0 a6 6 0 1 0 -12 0zM102 348 a6 6 0 1 0 12 0 a6 6 0 1 0 -12 0z" fill="rgba(21, 98, 181, 1)"></path><path d="M516 12L348 12" stroke-width="4" stroke="rgba(21, 98, 181, 1)"></path><path d="M510 12 a6 6 0 1 0 12 0 a6 6 0 1 0 -12 0zM342 12 a6 6 0 1 0 12 0 a6 6 0 1 0 -12 0z" fill="rgba(21, 98, 181, 1)"></path><path d="M1116 180L1164 180L1212 132L1212 84L1236 60L1260 60" stroke-width="4" stroke="rgba(21, 98, 181, 1)"></path><path d="M1110 180 a6 6 0 1 0 12 0 a6 6 0 1 0 -12 0zM1254 60 a6 6 0 1 0 12 0 a6 6 0 1 0 -12 0z" fill="rgba(21, 98, 181, 1)"></path><path d="M780 396L780 252" stroke-width="4" stroke="rgba(21, 98, 181, 1)"></path><path d="M774 396 a6 6 0 1 0 12 0 a6 6 0 1 0 -12 0zM774 252 a6 6 0 1 0 12 0 a6 6 0 1 0 -12 0z" fill="rgba(21, 98, 181, 1)"></path><path d="M1140 324L1068 324L924 468L684 468" stroke-width="4" stroke="rgba(21, 98, 181, 1)"></path><path d="M1134 324 a6 6 0 1 0 12 0 a6 6 0 1 0 -12 0zM678 468 a6 6 0 1 0 12 0 a6 6 0 1 0 -12 0z" fill="rgba(21, 98, 181, 1)"></path><path d="M1236 372L1236 348L1212 324" stroke-width="4" stroke="rgba(21, 98, 181, 1)"></path><path d="M1230 372 a6 6 0 1 0 12 0 a6 6 0 1 0 -12 0zM1206 324 a6 6 0 1 0 12 0 a6 6 0 1 0 -12 0z" fill="rgba(21, 98, 181, 1)"></path><path d="M1092 540L1140 540L1188 492L1188 468" stroke-width="4" stroke="rgba(21, 98, 181, 1)"></path><path d="M1086 540 a6 6 0 1 0 12 0 a6 6 0 1 0 -12 0zM1182 468 a6 6 0 1 0 12 0 a6 6 0 1 0 -12 0z" fill="rgba(21, 98, 181, 1)"></path><path d="M372 516L396 492L444 492L516 564L540 564" stroke-width="4" stroke="rgba(21, 98, 181, 1)"></path><path d="M366 516 a6 6 0 1 0 12 0 a6 6 0 1 0 -12 0zM534 564 a6 6 0 1 0 12 0 a6 6 0 1 0 -12 0z" fill="rgba(21, 98, 181, 1)"></path><path d="M996 108L1020 132L1068 132L1164 36" stroke-width="4" stroke="rgba(21, 98, 181, 1)"></path><path d="M990 108 a6 6 0 1 0 12 0 a6 6 0 1 0 -12 0zM1158 36 a6 6 0 1 0 12 0 a6 6 0 1 0 -12 0z" fill="rgba(21, 98, 181, 1)"></path><path d="M324 204L324 324" stroke-width="4" stroke="rgba(21, 98, 181, 1)"></path><path d="M318 204 a6 6 0 1 0 12 0 a6 6 0 1 0 -12 0zM318 324 a6 6 0 1 0 12 0 a6 6 0 1 0 -12 0z" fill="rgba(21, 98, 181, 1)"></path><path d="M1236 276L1212 252L1212 204L1236 180L1356 180L1428 252L1428 420" stroke-width="4" stroke="rgba(21, 98, 181, 1)"></path><path d="M1230 276 a6 6 0 1 0 12 0 a6 6 0 1 0 -12 0zM1422 420 a6 6 0 1 0 12 0 a6 6 0 1 0 -12 0z" fill="rgba(21, 98, 181, 1)"></path><path d="M708 420L732 444L924 444L1020 348L1020 300L1068 252L1092 252" stroke-width="4" stroke="rgba(21, 98, 181, 1)"></path><path d="M702 420 a6 6 0 1 0 12 0 a6 6 0 1 0 -12 0zM1086 252 a6 6 0 1 0 12 0 a6 6 0 1 0 -12 0z" fill="rgba(21, 98, 181, 1)"></path><path d="M852 132L924 132L948 156L996 156" stroke-width="4" stroke="rgba(21, 98, 181, 1)"></path><path d="M846 132 a6 6 0 1 0 12 0 a6 6 0 1 0 -12 0zM990 156 a6 6 0 1 0 12 0 a6 6 0 1 0 -12 0z" fill="rgba(21, 98, 181, 1)"></path><path d="M612 516L660 468" stroke-width="4" stroke="rgba(21, 98, 181, 1)"></path><path d="M606 516 a6 6 0 1 0 12 0 a6 6 0 1 0 -12 0zM654 468 a6 6 0 1 0 12 0 a6 6 0 1 0 -12 0z" fill="rgba(21, 98, 181, 1)"></path><path d="M1284 324L1260 300L1260 204" stroke-width="4" stroke="rgba(21, 98, 181, 1)"></path><path d="M1278 324 a6 6 0 1 0 12 0 a6 6 0 1 0 -12 0zM1254 204 a6 6 0 1 0 12 0 a6 6 0 1 0 -12 0z" fill="rgba(21, 98, 181, 1)"></path><path d="M1188 516L1212 540L1260 540" stroke-width="4" stroke="rgba(21, 98, 181, 1)"></path><path d="M1182 516 a6 6 0 1 0 12 0 a6 6 0 1 0 -12 0zM1254 540 a6 6 0 1 0 12 0 a6 6 0 1 0 -12 0z" fill="rgba(21, 98, 181, 1)"></path><path d="M252 324L300 324" stroke-width="4" stroke="rgba(21, 98, 181, 1)"></path><path d="M246 324 a6 6 0 1 0 12 0 a6 6 0 1 0 -12 0zM294 324 a6 6 0 1 0 12 0 a6 6 0 1 0 -12 0z" fill="rgba(21, 98, 181, 1)"></path><path d="M1068 36L1140 36" stroke-width="4" stroke="rgba(21, 98, 181, 1)"></path><path d="M1062 36 a6 6 0 1 0 12 0 a6 6 0 1 0 -12 0zM1134 36 a6 6 0 1 0 12 0 a6 6 0 1 0 -12 0z" fill="rgba(21, 98, 181, 1)"></path><path d="M756 12L684 12" stroke-width="4" stroke="rgba(21, 98, 181, 1)"></path><path d="M750 12 a6 6 0 1 0 12 0 a6 6 0 1 0 -12 0zM678 12 a6 6 0 1 0 12 0 a6 6 0 1 0 -12 0z" fill="rgba(21, 98, 181, 1)"></path><path d="M396 228L420 228L492 300L540 300L684 156L684 132L660 108L588 108" stroke-width="4" stroke="rgba(21, 98, 181, 1)"></path><path d="M390 228 a6 6 0 1 0 12 0 a6 6 0 1 0 -12 0zM582 108 a6 6 0 1 0 12 0 a6 6 0 1 0 -12 0z" fill="rgba(21, 98, 181, 1)"></path><path d="M948 36L852 36L828 12L780 12L732 60L684 60" stroke-width="4" stroke="rgba(21, 98, 181, 1)"></path><path d="M942 36 a6 6 0 1 0 12 0 a6 6 0 1 0 -12 0zM678 60 a6 6 0 1 0 12 0 a6 6 0 1 0 -12 0z" fill="rgba(21, 98, 181, 1)"></path><path d="M444 372L468 348L540 348L564 372L564 396L540 420L492 420" stroke-width="4" stroke="rgba(21, 98, 181, 1)"></path><path d="M438 372 a6 6 0 1 0 12 0 a6 6 0 1 0 -12 0zM486 420 a6 6 0 1 0 12 0 a6 6 0 1 0 -12 0z" fill="rgba(21, 98, 181, 1)"></path><path d="M180 468L108 468L36 540L36 564" stroke-width="4" stroke="rgba(21, 98, 181, 1)"></path><path d="M174 468 a6 6 0 1 0 12 0 a6 6 0 1 0 -12 0zM30 564 a6 6 0 1 0 12 0 a6 6 0 1 0 -12 0z" fill="rgba(21, 98, 181, 1)"></path><path d="M1020 396L1068 444L1092 444L1164 372L1164 300L1140 276L1116 276L1092 300" stroke-width="4" stroke="rgba(21, 98, 181, 1)"></path><path d="M1014 396 a6 6 0 1 0 12 0 a6 6 0 1 0 -12 0zM1086 300 a6 6 0 1 0 12 0 a6 6 0 1 0 -12 0z" fill="rgba(21, 98, 181, 1)"></path><path d="M396 348L444 348" stroke-width="4" stroke="rgba(21, 98, 181, 1)"></path><path d="M390 348 a6 6 0 1 0 12 0 a6 6 0 1 0 -12 0zM438 348 a6 6 0 1 0 12 0 a6 6 0 1 0 -12 0z" fill="rgba(21, 98, 181, 1)"></path><path d="M708 348L684 372L636 372" stroke-width="4" stroke="rgba(21, 98, 181, 1)"></path><path d="M702 348 a6 6 0 1 0 12 0 a6 6 0 1 0 -12 0zM630 372 a6 6 0 1 0 12 0 a6 6 0 1 0 -12 0z" fill="rgba(21, 98, 181, 1)"></path><path d="M204 228L300 132L324 132" stroke-width="4" stroke="rgba(21, 98, 181, 1)"></path><path d="M198 228 a6 6 0 1 0 12 0 a6 6 0 1 0 -12 0zM318 132 a6 6 0 1 0 12 0 a6 6 0 1 0 -12 0z" fill="rgba(21, 98, 181, 1)"></path><path d="M228 36L324 36" stroke-width="4" stroke="rgba(21, 98, 181, 1)"></path><path d="M222 36 a6 6 0 1 0 12 0 a6 6 0 1 0 -12 0zM318 36 a6 6 0 1 0 12 0 a6 6 0 1 0 -12 0z" fill="rgba(21, 98, 181, 1)"></path><path d="M948 108L900 60L756 60" stroke-width="4" stroke="rgba(21, 98, 181, 1)"></path><path d="M942 108 a6 6 0 1 0 12 0 a6 6 0 1 0 -12 0zM750 60 a6 6 0 1 0 12 0 a6 6 0 1 0 -12 0z" fill="rgba(21, 98, 181, 1)"></path><path d="M84 204L84 228L12 300L12 348" stroke-width="4" stroke="rgba(21, 98, 181, 1)"></path><path d="M78 204 a6 6 0 1 0 12 0 a6 6 0 1 0 -12 0zM6 348 a6 6 0 1 0 12 0 a6 6 0 1 0 -12 0z" fill="rgba(21, 98, 181, 1)"></path><path d="M588 60L636 12" stroke-width="4" stroke="rgba(21, 98, 181, 1)"></path><path d="M582 60 a6 6 0 1 0 12 0 a6 6 0 1 0 -12 0zM630 12 a6 6 0 1 0 12 0 a6 6 0 1 0 -12 0z" fill="rgba(21, 98, 181, 1)"></path><path d="M36 156L12 180L12 276" stroke-width="4" stroke="rgba(21, 98, 181, 1)"></path><path d="M30 156 a6 6 0 1 0 12 0 a6 6 0 1 0 -12 0zM6 276 a6 6 0 1 0 12 0 a6 6 0 1 0 -12 0z" fill="rgba(21, 98, 181, 1)"></path><path d="M300 492L252 444L204 444" stroke-width="4" stroke="rgba(21, 98, 181, 1)"></path><path d="M294 492 a6 6 0 1 0 12 0 a6 6 0 1 0 -12 0zM198 444 a6 6 0 1 0 12 0 a6 6 0 1 0 -12 0z" fill="rgba(21, 98, 181, 1)"></path><path d="M900 276L924 300L924 324L852 396L804 396" stroke-width="4" stroke="rgba(21, 98, 181, 1)"></path><path d="M894 276 a6 6 0 1 0 12 0 a6 6 0 1 0 -12 0zM798 396 a6 6 0 1 0 12 0 a6 6 0 1 0 -12 0z" fill="rgba(21, 98, 181, 1)"></path><path d="M1356 444L1428 444" stroke-width="4" stroke="rgba(21, 98, 181, 1)"></path><path d="M1350 444 a6 6 0 1 0 12 0 a6 6 0 1 0 -12 0zM1422 444 a6 6 0 1 0 12 0 a6 6 0 1 0 -12 0z" fill="rgba(21, 98, 181, 1)"></path><path d="M1404 132L1404 204L1428 228" stroke-width="4" stroke="rgba(21, 98, 181, 1)"></path><path d="M1398 132 a6 6 0 1 0 12 0 a6 6 0 1 0 -12 0zM1422 228 a6 6 0 1 0 12 0 a6 6 0 1 0 -12 0z" fill="rgba(21, 98, 181, 1)"></path><path d="M108 132L180 132L252 60" stroke-width="4" stroke="rgba(21, 98, 181, 1)"></path><path d="M102 132 a6 6 0 1 0 12 0 a6 6 0 1 0 -12 0zM246 60 a6 6 0 1 0 12 0 a6 6 0 1 0 -12 0z" fill="rgba(21, 98, 181, 1)"></path><path d="M1356 156L1356 60" stroke-width="4" stroke="rgba(21, 98, 181, 1)"></path><path d="M1350 156 a6 6 0 1 0 12 0 a6 6 0 1 0 -12 0zM1350 60 a6 6 0 1 0 12 0 a6 6 0 1 0 -12 0z" fill="rgba(21, 98, 181, 1)"></path><path d="M636 180L660 156L660 132" stroke-width="4" stroke="rgba(21, 98, 181, 1)"></path><path d="M630 180 a6 6 0 1 0 12 0 a6 6 0 1 0 -12 0zM654 132 a6 6 0 1 0 12 0 a6 6 0 1 0 -12 0z" fill="rgba(21, 98, 181, 1)"></path><path d="M420 84L468 36L588 36L612 12" stroke-width="4" stroke="rgba(21, 98, 181, 1)"></path><path d="M414 84 a6 6 0 1 0 12 0 a6 6 0 1 0 -12 0zM606 12 a6 6 0 1 0 12 0 a6 6 0 1 0 -12 0z" fill="rgba(21, 98, 181, 1)"></path><path d="M540 84L468 84" stroke-width="4" stroke="rgba(21, 98, 181, 1)"></path><path d="M534 84 a6 6 0 1 0 12 0 a6 6 0 1 0 -12 0zM462 84 a6 6 0 1 0 12 0 a6 6 0 1 0 -12 0z" fill="rgba(21, 98, 181, 1)"></path><path d="M300 300L228 228" stroke-width="4" stroke="rgba(21, 98, 181, 1)"></path><path d="M294 300 a6 6 0 1 0 12 0 a6 6 0 1 0 -12 0zM222 228 a6 6 0 1 0 12 0 a6 6 0 1 0 -12 0z" fill="rgba(21, 98, 181, 1)"></path><path d="M972 348L972 372L924 420L900 420" stroke-width="4" stroke="rgba(21, 98, 181, 1)"></path><path d="M966 348 a6 6 0 1 0 12 0 a6 6 0 1 0 -12 0zM894 420 a6 6 0 1 0 12 0 a6 6 0 1 0 -12 0z" fill="rgba(21, 98, 181, 1)"></path><path d="M900 564L924 564L948 540L1020 540" stroke-width="4" stroke="rgba(21, 98, 181, 1)"></path><path d="M894 564 a6 6 0 1 0 12 0 a6 6 0 1 0 -12 0zM1014 540 a6 6 0 1 0 12 0 a6 6 0 1 0 -12 0z" fill="rgba(21, 98, 181, 1)"></path><path d="M876 252L948 252" stroke-width="4" stroke="rgba(21, 98, 181, 1)"></path><path d="M870 252 a6 6 0 1 0 12 0 a6 6 0 1 0 -12 0zM942 252 a6 6 0 1 0 12 0 a6 6 0 1 0 -12 0z" fill="rgba(21, 98, 181, 1)"></path><path d="M1332 156L1308 132L1284 132L1260 156" stroke-width="4" stroke="rgba(21, 98, 181, 1)"></path><path d="M1326 156 a6 6 0 1 0 12 0 a6 6 0 1 0 -12 0zM1254 156 a6 6 0 1 0 12 0 a6 6 0 1 0 -12 0z" fill="rgba(21, 98, 181, 1)"></path><path d="M564 228L516 276L492 276L420 204L420 156L372 108" stroke-width="4" stroke="rgba(21, 98, 181, 1)"></path><path d="M558 228 a6 6 0 1 0 12 0 a6 6 0 1 0 -12 0zM366 108 a6 6 0 1 0 12 0 a6 6 0 1 0 -12 0z" fill="rgba(21, 98, 181, 1)"></path><path d="M780 516L756 540L756 564" stroke-width="4" stroke="rgba(21, 98, 181, 1)"></path><path d="M774 516 a6 6 0 1 0 12 0 a6 6 0 1 0 -12 0zM750 564 a6 6 0 1 0 12 0 a6 6 0 1 0 -12 0z" fill="rgba(21, 98, 181, 1)"></path><path d="M996 84L948 84L924 60" stroke-width="4" stroke="rgba(21, 98, 181, 1)"></path><path d="M990 84 a6 6 0 1 0 12 0 a6 6 0 1 0 -12 0zM918 60 a6 6 0 1 0 12 0 a6 6 0 1 0 -12 0z" fill="rgba(21, 98, 181, 1)"></path><path d="M1380 324L1404 300L1404 252L1356 204L1284 204" stroke-width="4" stroke="rgba(21, 98, 181, 1)"></path><path d="M1374 324 a6 6 0 1 0 12 0 a6 6 0 1 0 -12 0zM1278 204 a6 6 0 1 0 12 0 a6 6 0 1 0 -12 0z" fill="rgba(21, 98, 181, 1)"></path><path d="M1308 252L1356 252L1380 276L1380 300L1332 348" stroke-width="4" stroke="rgba(21, 98, 181, 1)"></path><path d="M1302 252 a6 6 0 1 0 12 0 a6 6 0 1 0 -12 0zM1326 348 a6 6 0 1 0 12 0 a6 6 0 1 0 -12 0z" fill="rgba(21, 98, 181, 1)"></path><path d="M1308 300L1332 276L1356 276" stroke-width="4" stroke="rgba(21, 98, 181, 1)"></path><path d="M1302 300 a6 6 0 1 0 12 0 a6 6 0 1 0 -12 0zM1350 276 a6 6 0 1 0 12 0 a6 6 0 1 0 -12 0z" fill="rgba(21, 98, 181, 1)"></path><path d="M108 516L132 492L204 492" stroke-width="4" stroke="rgba(21, 98, 181, 1)"></path><path d="M102 516 a6 6 0 1 0 12 0 a6 6 0 1 0 -12 0zM198 492 a6 6 0 1 0 12 0 a6 6 0 1 0 -12 0z" fill="rgba(21, 98, 181, 1)"></path><path d="M636 444L636 468L588 516L564 516L516 468" stroke-width="4" stroke="rgba(21, 98, 181, 1)"></path><path d="M630 444 a6 6 0 1 0 12 0 a6 6 0 1 0 -12 0zM510 468 a6 6 0 1 0 12 0 a6 6 0 1 0 -12 0z" fill="rgba(21, 98, 181, 1)"></path><path d="M180 564L132 516" stroke-width="4" stroke="rgba(21, 98, 181, 1)"></path><path d="M174 564 a6 6 0 1 0 12 0 a6 6 0 1 0 -12 0zM126 516 a6 6 0 1 0 12 0 a6 6 0 1 0 -12 0z" fill="rgba(21, 98, 181, 1)"></path><path d="M1020 420L1020 492" stroke-width="4" stroke="rgba(21, 98, 181, 1)"></path><path d="M1014 420 a6 6 0 1 0 12 0 a6 6 0 1 0 -12 0zM1014 492 a6 6 0 1 0 12 0 a6 6 0 1 0 -12 0z" fill="rgba(21, 98, 181, 1)"></path><path d="M540 180L516 156L492 156" stroke-width="4" stroke="rgba(21, 98, 181, 1)"></path><path d="M534 180 a6 6 0 1 0 12 0 a6 6 0 1 0 -12 0zM486 156 a6 6 0 1 0 12 0 a6 6 0 1 0 -12 0z" fill="rgba(21, 98, 181, 1)"></path><path d="M588 444L564 468L540 468" stroke-width="4" stroke="rgba(21, 98, 181, 1)"></path><path d="M582 444 a6 6 0 1 0 12 0 a6 6 0 1 0 -12 0zM534 468 a6 6 0 1 0 12 0 a6 6 0 1 0 -12 0z" fill="rgba(21, 98, 181, 1)"></path><path d="M372 252L372 132" stroke-width="4" stroke="rgba(21, 98, 181, 1)"></path><path d="M366 252 a6 6 0 1 0 12 0 a6 6 0 1 0 -12 0zM366 132 a6 6 0 1 0 12 0 a6 6 0 1 0 -12 0z" fill="rgba(21, 98, 181, 1)"></path><path d="M180 228L180 204L204 180" stroke-width="4" stroke="rgba(21, 98, 181, 1)"></path><path d="M174 228 a6 6 0 1 0 12 0 a6 6 0 1 0 -12 0zM198 180 a6 6 0 1 0 12 0 a6 6 0 1 0 -12 0z" fill="rgba(21, 98, 181, 1)"></path><path d="M828 252L852 252L900 300L900 324" stroke-width="4" stroke="rgba(21, 98, 181, 1)"></path><path d="M822 252 a6 6 0 1 0 12 0 a6 6 0 1 0 -12 0zM894 324 a6 6 0 1 0 12 0 a6 6 0 1 0 -12 0z" fill="rgba(21, 98, 181, 1)"></path><path d="M1356 468L1332 444L1332 396" stroke-width="4" stroke="rgba(21, 98, 181, 1)"></path><path d="M1350 468 a6 6 0 1 0 12 0 a6 6 0 1 0 -12 0zM1326 396 a6 6 0 1 0 12 0 a6 6 0 1 0 -12 0z" fill="rgba(21, 98, 181, 1)"></path><path d="M300 564L300 540L324 516" stroke-width="4" stroke="rgba(21, 98, 181, 1)"></path><path d="M294 564 a6 6 0 1 0 12 0 a6 6 0 1 0 -12 0zM318 516 a6 6 0 1 0 12 0 a6 6 0 1 0 -12 0z" fill="rgba(21, 98, 181, 1)"></path><path d="M348 252L396 300L468 300" stroke-width="4" stroke="rgba(21, 98, 181, 1)"></path><path d="M342 252 a6 6 0 1 0 12 0 a6 6 0 1 0 -12 0zM462 300 a6 6 0 1 0 12 0 a6 6 0 1 0 -12 0z" fill="rgba(21, 98, 181, 1)"></path><path d="M36 204L60 204L108 156L156 156" stroke-width="4" stroke="rgba(21, 98, 181, 1)"></path><path d="M30 204 a6 6 0 1 0 12 0 a6 6 0 1 0 -12 0zM150 156 a6 6 0 1 0 12 0 a6 6 0 1 0 -12 0z" fill="rgba(21, 98, 181, 1)"></path><path d="M732 348L732 276L708 252L684 252L636 300L636 348" stroke-width="4" stroke="rgba(21, 98, 181, 1)"></path><path d="M726 348 a6 6 0 1 0 12 0 a6 6 0 1 0 -12 0zM630 348 a6 6 0 1 0 12 0 a6 6 0 1 0 -12 0z" fill="rgba(21, 98, 181, 1)"></path><path d="M324 396L348 372L372 372" stroke-width="4" stroke="rgba(21, 98, 181, 1)"></path><path d="M318 396 a6 6 0 1 0 12 0 a6 6 0 1 0 -12 0zM366 372 a6 6 0 1 0 12 0 a6 6 0 1 0 -12 0z" fill="rgba(21, 98, 181, 1)"></path><path d="M396 60L420 60L444 36" stroke-width="4" stroke="rgba(21, 98, 181, 1)"></path><path d="M390 60 a6 6 0 1 0 12 0 a6 6 0 1 0 -12 0zM438 36 a6 6 0 1 0 12 0 a6 6 0 1 0 -12 0z" fill="rgba(21, 98, 181, 1)"></path><path d="M468 204L516 252" stroke-width="4" stroke="rgba(21, 98, 181, 1)"></path><path d="M462 204 a6 6 0 1 0 12 0 a6 6 0 1 0 -12 0zM510 252 a6 6 0 1 0 12 0 a6 6 0 1 0 -12 0z" fill="rgba(21, 98, 181, 1)"></path><path d="M1068 108L1020 108" stroke-width="4" stroke="rgba(21, 98, 181, 1)"></path><path d="M1062 108 a6 6 0 1 0 12 0 a6 6 0 1 0 -12 0zM1014 108 a6 6 0 1 0 12 0 a6 6 0 1 0 -12 0z" fill="rgba(21, 98, 181, 1)"></path><path d="M1044 60L1116 60" stroke-width="4" stroke="rgba(21, 98, 181, 1)"></path><path d="M1038 60 a6 6 0 1 0 12 0 a6 6 0 1 0 -12 0zM1110 60 a6 6 0 1 0 12 0 a6 6 0 1 0 -12 0z" fill="rgba(21, 98, 181, 1)"></path><path d="M612 180L636 156L636 132" stroke-width="4" stroke="rgba(21, 98, 181, 1)"></path><path d="M606 180 a6 6 0 1 0 12 0 a6 6 0 1 0 -12 0zM630 132 a6 6 0 1 0 12 0 a6 6 0 1 0 -12 0z" fill="rgba(21, 98, 181, 1)"></path><path d="M1332 540L1356 516L1428 516" stroke-width="4" stroke="rgba(21, 98, 181, 1)"></path><path d="M1326 540 a6 6 0 1 0 12 0 a6 6 0 1 0 -12 0zM1422 516 a6 6 0 1 0 12 0 a6 6 0 1 0 -12 0z" fill="rgba(21, 98, 181, 1)"></path><path d="M1068 420L1092 420L1116 396L1116 348" stroke-width="4" stroke="rgba(21, 98, 181, 1)"></path><path d="M1062 420 a6 6 0 1 0 12 0 a6 6 0 1 0 -12 0zM1110 348 a6 6 0 1 0 12 0 a6 6 0 1 0 -12 0z" fill="rgba(21, 98, 181, 1)"></path><path d="M276 396L204 396" stroke-width="4" stroke="rgba(21, 98, 181, 1)"></path><path d="M270 396 a6 6 0 1 0 12 0 a6 6 0 1 0 -12 0zM198 396 a6 6 0 1 0 12 0 a6 6 0 1 0 -12 0z" fill="rgba(21, 98, 181, 1)"></path><path d="M1428 156L1428 204" stroke-width="4" stroke="rgba(21, 98, 181, 1)"></path><path d="M1422 156 a6 6 0 1 0 12 0 a6 6 0 1 0 -12 0zM1422 204 a6 6 0 1 0 12 0 a6 6 0 1 0 -12 0z" fill="rgba(21, 98, 181, 1)"></path><path d="M684 516L708 492L756 492" stroke-width="4" stroke="rgba(21, 98, 181, 1)"></path><path d="M678 516 a6 6 0 1 0 12 0 a6 6 0 1 0 -12 0zM750 492 a6 6 0 1 0 12 0 a6 6 0 1 0 -12 0z" fill="rgba(21, 98, 181, 1)"></path><path d="M132 564L60 564" stroke-width="4" stroke="rgba(21, 98, 181, 1)"></path><path d="M126 564 a6 6 0 1 0 12 0 a6 6 0 1 0 -12 0zM54 564 a6 6 0 1 0 12 0 a6 6 0 1 0 -12 0z" fill="rgba(21, 98, 181, 1)"></path><path d="M996 420L924 492L876 492L852 516L852 540" stroke-width="4" stroke="rgba(21, 98, 181, 1)"></path><path d="M990 420 a6 6 0 1 0 12 0 a6 6 0 1 0 -12 0zM846 540 a6 6 0 1 0 12 0 a6 6 0 1 0 -12 0z" fill="rgba(21, 98, 181, 1)"></path><path d="M108 84L84 60L84 36" stroke-width="4" stroke="rgba(21, 98, 181, 1)"></path><path d="M102 84 a6 6 0 1 0 12 0 a6 6 0 1 0 -12 0zM78 36 a6 6 0 1 0 12 0 a6 6 0 1 0 -12 0z" fill="rgba(21, 98, 181, 1)"></path><path d="M300 276L276 252L276 228L300 204L300 180" stroke-width="4" stroke="rgba(21, 98, 181, 1)"></path><path d="M294 276 a6 6 0 1 0 12 0 a6 6 0 1 0 -12 0zM294 180 a6 6 0 1 0 12 0 a6 6 0 1 0 -12 0z" fill="rgba(21, 98, 181, 1)"></path><path d="M1428 84L1428 36" stroke-width="4" stroke="rgba(21, 98, 181, 1)"></path><path d="M1422 84 a6 6 0 1 0 12 0 a6 6 0 1 0 -12 0zM1422 36 a6 6 0 1 0 12 0 a6 6 0 1 0 -12 0z" fill="rgba(21, 98, 181, 1)"></path><path d="M204 540L180 540L156 516" stroke-width="4" stroke="rgba(21, 98, 181, 1)"></path><path d="M198 540 a6 6 0 1 0 12 0 a6 6 0 1 0 -12 0zM150 516 a6 6 0 1 0 12 0 a6 6 0 1 0 -12 0z" fill="rgba(21, 98, 181, 1)"></path><path d="M540 204L612 204" stroke-width="4" stroke="rgba(21, 98, 181, 1)"></path><path d="M534 204 a6 6 0 1 0 12 0 a6 6 0 1 0 -12 0zM606 204 a6 6 0 1 0 12 0 a6 6 0 1 0 -12 0z" fill="rgba(21, 98, 181, 1)"></path><path d="M132 84L132 36" stroke-width="4" stroke="rgba(21, 98, 181, 1)"></path><path d="M126 84 a6 6 0 1 0 12 0 a6 6 0 1 0 -12 0zM126 36 a6 6 0 1 0 12 0 a6 6 0 1 0 -12 0z" fill="rgba(21, 98, 181, 1)"></path><path d="M1092 348L1092 396" stroke-width="4" stroke="rgba(21, 98, 181, 1)"></path><path d="M1086 348 a6 6 0 1 0 12 0 a6 6 0 1 0 -12 0zM1086 396 a6 6 0 1 0 12 0 a6 6 0 1 0 -12 0z" fill="rgba(21, 98, 181, 1)"></path><path d="M1068 348L1068 396" stroke-width="4" stroke="rgba(21, 98, 181, 1)"></path><path d="M1062 348 a6 6 0 1 0 12 0 a6 6 0 1 0 -12 0zM1062 396 a6 6 0 1 0 12 0 a6 6 0 1 0 -12 0z" fill="rgba(21, 98, 181, 1)"></path><path d="M324 372L228 372" stroke-width="4" stroke="rgba(21, 98, 181, 1)"></path><path d="M318 372 a6 6 0 1 0 12 0 a6 6 0 1 0 -12 0zM222 372 a6 6 0 1 0 12 0 a6 6 0 1 0 -12 0z" fill="rgba(21, 98, 181, 1)"></path><path d="M228 300L156 300" stroke-width="4" stroke="rgba(21, 98, 181, 1)"></path><path d="M222 300 a6 6 0 1 0 12 0 a6 6 0 1 0 -12 0zM150 300 a6 6 0 1 0 12 0 a6 6 0 1 0 -12 0z" fill="rgba(21, 98, 181, 1)"></path><path d="M156 252L180 276L252 276" stroke-width="4" stroke="rgba(21, 98, 181, 1)"></path><path d="M150 252 a6 6 0 1 0 12 0 a6 6 0 1 0 -12 0zM246 276 a6 6 0 1 0 12 0 a6 6 0 1 0 -12 0z" fill="rgba(21, 98, 181, 1)"></path><path d="M684 300L660 324L660 348" stroke-width="4" stroke="rgba(21, 98, 181, 1)"></path><path d="M678 300 a6 6 0 1 0 12 0 a6 6 0 1 0 -12 0zM654 348 a6 6 0 1 0 12 0 a6 6 0 1 0 -12 0z" fill="rgba(21, 98, 181, 1)"></path><path d="M612 444L612 468L588 492L564 492" stroke-width="4" stroke="rgba(21, 98, 181, 1)"></path><path d="M606 444 a6 6 0 1 0 12 0 a6 6 0 1 0 -12 0zM558 492 a6 6 0 1 0 12 0 a6 6 0 1 0 -12 0z" fill="rgba(21, 98, 181, 1)"></path><path d="M540 60L468 60" stroke-width="4" stroke="rgba(21, 98, 181, 1)"></path><path d="M534 60 a6 6 0 1 0 12 0 a6 6 0 1 0 -12 0zM462 60 a6 6 0 1 0 12 0 a6 6 0 1 0 -12 0z" fill="rgba(21, 98, 181, 1)"></path><path d="M1068 84L1020 84" stroke-width="4" stroke="rgba(21, 98, 181, 1)"></path><path d="M1062 84 a6 6 0 1 0 12 0 a6 6 0 1 0 -12 0zM1014 84 a6 6 0 1 0 12 0 a6 6 0 1 0 -12 0z" fill="rgba(21, 98, 181, 1)"></path><path d="M732 36L684 36" stroke-width="4" stroke="rgba(21, 98, 181, 1)"></path><path d="M726 36 a6 6 0 1 0 12 0 a6 6 0 1 0 -12 0zM678 36 a6 6 0 1 0 12 0 a6 6 0 1 0 -12 0z" fill="rgba(21, 98, 181, 1)"></path><path d="M60 180L60 156L84 132" stroke-width="4" stroke="rgba(21, 98, 181, 1)"></path><path d="M54 180 a6 6 0 1 0 12 0 a6 6 0 1 0 -12 0zM78 132 a6 6 0 1 0 12 0 a6 6 0 1 0 -12 0z" fill="rgba(21, 98, 181, 1)"></path><path d="M1428 468L1380 468" stroke-width="4" stroke="rgba(21, 98, 181, 1)"></path><path d="M1422 468 a6 6 0 1 0 12 0 a6 6 0 1 0 -12 0zM1374 468 a6 6 0 1 0 12 0 a6 6 0 1 0 -12 0z" fill="rgba(21, 98, 181, 1)"></path><path d="M1332 228L1308 228L1284 252L1284 300" stroke-width="4" stroke="rgba(21, 98, 181, 1)"></path><path d="M1326 228 a6 6 0 1 0 12 0 a6 6 0 1 0 -12 0zM1278 300 a6 6 0 1 0 12 0 a6 6 0 1 0 -12 0z" fill="rgba(21, 98, 181, 1)"></path><path d="M348 444L324 468L300 468" stroke-width="4" stroke="rgba(21, 98, 181, 1)"></path><path d="M342 444 a6 6 0 1 0 12 0 a6 6 0 1 0 -12 0zM294 468 a6 6 0 1 0 12 0 a6 6 0 1 0 -12 0z" fill="rgba(21, 98, 181, 1)"></path><path d="M396 204L396 156" stroke-width="4" stroke="rgba(21, 98, 181, 1)"></path><path d="M390 204 a6 6 0 1 0 12 0 a6 6 0 1 0 -12 0zM390 156 a6 6 0 1 0 12 0 a6 6 0 1 0 -12 0z" fill="rgba(21, 98, 181, 1)"></path><path d="M204 324L156 324" stroke-width="4" stroke="rgba(21, 98, 181, 1)"></path><path d="M198 324 a6 6 0 1 0 12 0 a6 6 0 1 0 -12 0zM150 324 a6 6 0 1 0 12 0 a6 6 0 1 0 -12 0z" fill="rgba(21, 98, 181, 1)"></path><path d="M396 252L420 276L444 276" stroke-width="4" stroke="rgba(21, 98, 181, 1)"></path><path d="M390 252 a6 6 0 1 0 12 0 a6 6 0 1 0 -12 0zM438 276 a6 6 0 1 0 12 0 a6 6 0 1 0 -12 0z" fill="rgba(21, 98, 181, 1)"></path><path d="M1236 252L1236 204" stroke-width="4" stroke="rgba(21, 98, 181, 1)"></path><path d="M1230 252 a6 6 0 1 0 12 0 a6 6 0 1 0 -12 0zM1230 204 a6 6 0 1 0 12 0 a6 6 0 1 0 -12 0z" fill="rgba(21, 98, 181, 1)"></path><path d="M852 492L804 492" stroke-width="4" stroke="rgba(21, 98, 181, 1)"></path><path d="M846 492 a6 6 0 1 0 12 0 a6 6 0 1 0 -12 0zM798 492 a6 6 0 1 0 12 0 a6 6 0 1 0 -12 0z" fill="rgba(21, 98, 181, 1)"></path><path d="M1332 564L1356 540L1380 540" stroke-width="4" stroke="rgba(21, 98, 181, 1)"></path><path d="M1326 564 a6 6 0 1 0 12 0 a6 6 0 1 0 -12 0zM1374 540 a6 6 0 1 0 12 0 a6 6 0 1 0 -12 0z" fill="rgba(21, 98, 181, 1)"></path><path d="M1404 36L1404 84" stroke-width="4" stroke="rgba(21, 98, 181, 1)"></path><path d="M1398 36 a6 6 0 1 0 12 0 a6 6 0 1 0 -12 0zM1398 84 a6 6 0 1 0 12 0 a6 6 0 1 0 -12 0z" fill="rgba(21, 98, 181, 1)"></path><path d="M132 372L132 420" stroke-width="4" stroke="rgba(21, 98, 181, 1)"></path><path d="M126 372 a6 6 0 1 0 12 0 a6 6 0 1 0 -12 0zM126 420 a6 6 0 1 0 12 0 a6 6 0 1 0 -12 0z" fill="rgba(21, 98, 181, 1)"></path></g></g><defs><mask id="SvgjsMask1102"><rect width="1440" height="560" fill="#ffffff"></rect></mask><mask id="SvgjsMask1103"><rect width="1440" height="560" fill="white"></rect><path d="M1161 252 a3 3 0 1 0 6 0 a3 3 0 1 0 -6 0zM1113 564 a3 3 0 1 0 6 0 a3 3 0 1 0 -6 0z" fill="black"></path><path d="M801 132 a3 3 0 1 0 6 0 a3 3 0 1 0 -6 0zM345 324 a3 3 0 1 0 6 0 a3 3 0 1 0 -6 0z" fill="black"></path><path d="M729 396 a3 3 0 1 0 6 0 a3 3 0 1 0 -6 0zM273 540 a3 3 0 1 0 6 0 a3 3 0 1 0 -6 0z" fill="black"></path><path d="M513 204 a3 3 0 1 0 6 0 a3 3 0 1 0 -6 0zM57 36 a3 3 0 1 0 6 0 a3 3 0 1 0 -6 0z" fill="black"></path><path d="M33 300 a3 3 0 1 0 6 0 a3 3 0 1 0 -6 0zM489 204 a3 3 0 1 0 6 0 a3 3 0 1 0 -6 0z" fill="black"></path><path d="M57 60 a3 3 0 1 0 6 0 a3 3 0 1 0 -6 0zM9 60 a3 3 0 1 0 6 0 a3 3 0 1 0 -6 0z" fill="black"></path><path d="M105 324 a3 3 0 1 0 6 0 a3 3 0 1 0 -6 0zM9 564 a3 3 0 1 0 6 0 a3 3 0 1 0 -6 0z" fill="black"></path><path d="M897 84 a3 3 0 1 0 6 0 a3 3 0 1 0 -6 0zM441 84 a3 3 0 1 0 6 0 a3 3 0 1 0 -6 0z" fill="black"></path><path d="M1377 12 a3 3 0 1 0 6 0 a3 3 0 1 0 -6 0zM1401 372 a3 3 0 1 0 6 0 a3 3 0 1 0 -6 0z" fill="black"></path><path d="M897 12 a3 3 0 1 0 6 0 a3 3 0 1 0 -6 0zM1353 12 a3 3 0 1 0 6 0 a3 3 0 1 0 -6 0z" fill="black"></path><path d="M129 108 a3 3 0 1 0 6 0 a3 3 0 1 0 -6 0zM9 108 a3 3 0 1 0 6 0 a3 3 0 1 0 -6 0z" fill="black"></path><path d="M873 324 a3 3 0 1 0 6 0 a3 3 0 1 0 -6 0zM585 396 a3 3 0 1 0 6 0 a3 3 0 1 0 -6 0z" fill="black"></path><path d="M1377 180 a3 3 0 1 0 6 0 a3 3 0 1 0 -6 0zM1425 12 a3 3 0 1 0 6 0 a3 3 0 1 0 -6 0z" fill="black"></path><path d="M1233 108 a3 3 0 1 0 6 0 a3 3 0 1 0 -6 0zM897 372 a3 3 0 1 0 6 0 a3 3 0 1 0 -6 0z" fill="black"></path><path d="M753 372 a3 3 0 1 0 6 0 a3 3 0 1 0 -6 0zM609 396 a3 3 0 1 0 6 0 a3 3 0 1 0 -6 0z" fill="black"></path><path d="M393 564 a3 3 0 1 0 6 0 a3 3 0 1 0 -6 0zM729 564 a3 3 0 1 0 6 0 a3 3 0 1 0 -6 0z" fill="black"></path><path d="M657 12 a3 3 0 1 0 6 0 a3 3 0 1 0 -6 0zM657 60 a3 3 0 1 0 6 0 a3 3 0 1 0 -6 0z" fill="black"></path><path d="M777 492 a3 3 0 1 0 6 0 a3 3 0 1 0 -6 0zM489 468 a3 3 0 1 0 6 0 a3 3 0 1 0 -6 0z" fill="black"></path><path d="M417 420 a3 3 0 1 0 6 0 a3 3 0 1 0 -6 0zM177 180 a3 3 0 1 0 6 0 a3 3 0 1 0 -6 0z" fill="black"></path><path d="M177 84 a3 3 0 1 0 6 0 a3 3 0 1 0 -6 0zM177 36 a3 3 0 1 0 6 0 a3 3 0 1 0 -6 0z" fill="black"></path><path d="M1017 204 a3 3 0 1 0 6 0 a3 3 0 1 0 -6 0zM729 156 a3 3 0 1 0 6 0 a3 3 0 1 0 -6 0z" fill="black"></path><path d="M153 420 a3 3 0 1 0 6 0 a3 3 0 1 0 -6 0zM249 564 a3 3 0 1 0 6 0 a3 3 0 1 0 -6 0z" fill="black"></path><path d="M1185 444 a3 3 0 1 0 6 0 a3 3 0 1 0 -6 0zM1281 516 a3 3 0 1 0 6 0 a3 3 0 1 0 -6 0z" fill="black"></path><path d="M81 300 a3 3 0 1 0 6 0 a3 3 0 1 0 -6 0zM57 420 a3 3 0 1 0 6 0 a3 3 0 1 0 -6 0z" fill="black"></path><path d="M561 180 a3 3 0 1 0 6 0 a3 3 0 1 0 -6 0zM561 108 a3 3 0 1 0 6 0 a3 3 0 1 0 -6 0z" fill="black"></path><path d="M345 228 a3 3 0 1 0 6 0 a3 3 0 1 0 -6 0zM345 84 a3 3 0 1 0 6 0 a3 3 0 1 0 -6 0z" fill="black"></path><path d="M993 252 a3 3 0 1 0 6 0 a3 3 0 1 0 -6 0zM801 228 a3 3 0 1 0 6 0 a3 3 0 1 0 -6 0z" fill="black"></path><path d="M1089 228 a3 3 0 1 0 6 0 a3 3 0 1 0 -6 0zM753 396 a3 3 0 1 0 6 0 a3 3 0 1 0 -6 0z" fill="black"></path><path d="M1041 324 a3 3 0 1 0 6 0 a3 3 0 1 0 -6 0zM1233 132 a3 3 0 1 0 6 0 a3 3 0 1 0 -6 0z" fill="black"></path><path d="M1089 516 a3 3 0 1 0 6 0 a3 3 0 1 0 -6 0zM1281 396 a3 3 0 1 0 6 0 a3 3 0 1 0 -6 0z" fill="black"></path><path d="M1017 564 a3 3 0 1 0 6 0 a3 3 0 1 0 -6 0zM1137 252 a3 3 0 1 0 6 0 a3 3 0 1 0 -6 0z" fill="black"></path><path d="M1329 516 a3 3 0 1 0 6 0 a3 3 0 1 0 -6 0zM1425 492 a3 3 0 1 0 6 0 a3 3 0 1 0 -6 0z" fill="black"></path><path d="M489 396 a3 3 0 1 0 6 0 a3 3 0 1 0 -6 0zM153 348 a3 3 0 1 0 6 0 a3 3 0 1 0 -6 0z" fill="black"></path><path d="M225 180 a3 3 0 1 0 6 0 a3 3 0 1 0 -6 0zM321 108 a3 3 0 1 0 6 0 a3 3 0 1 0 -6 0z" fill="black"></path><path d="M825 132 a3 3 0 1 0 6 0 a3 3 0 1 0 -6 0zM1209 36 a3 3 0 1 0 6 0 a3 3 0 1 0 -6 0z" fill="black"></path><path d="M945 132 a3 3 0 1 0 6 0 a3 3 0 1 0 -6 0zM1185 36 a3 3 0 1 0 6 0 a3 3 0 1 0 -6 0z" fill="black"></path><path d="M801 180 a3 3 0 1 0 6 0 a3 3 0 1 0 -6 0zM753 156 a3 3 0 1 0 6 0 a3 3 0 1 0 -6 0z" fill="black"></path><path d="M1161 396 a3 3 0 1 0 6 0 a3 3 0 1 0 -6 0zM873 564 a3 3 0 1 0 6 0 a3 3 0 1 0 -6 0z" fill="black"></path><path d="M105 252 a3 3 0 1 0 6 0 a3 3 0 1 0 -6 0zM105 300 a3 3 0 1 0 6 0 a3 3 0 1 0 -6 0z" fill="black"></path><path d="M57 468 a3 3 0 1 0 6 0 a3 3 0 1 0 -6 0zM105 348 a3 3 0 1 0 6 0 a3 3 0 1 0 -6 0z" fill="black"></path><path d="M513 12 a3 3 0 1 0 6 0 a3 3 0 1 0 -6 0zM345 12 a3 3 0 1 0 6 0 a3 3 0 1 0 -6 0z" fill="black"></path><path d="M1113 180 a3 3 0 1 0 6 0 a3 3 0 1 0 -6 0zM1257 60 a3 3 0 1 0 6 0 a3 3 0 1 0 -6 0z" fill="black"></path><path d="M777 396 a3 3 0 1 0 6 0 a3 3 0 1 0 -6 0zM777 252 a3 3 0 1 0 6 0 a3 3 0 1 0 -6 0z" fill="black"></path><path d="M1137 324 a3 3 0 1 0 6 0 a3 3 0 1 0 -6 0zM681 468 a3 3 0 1 0 6 0 a3 3 0 1 0 -6 0z" fill="black"></path><path d="M1233 372 a3 3 0 1 0 6 0 a3 3 0 1 0 -6 0zM1209 324 a3 3 0 1 0 6 0 a3 3 0 1 0 -6 0z" fill="black"></path><path d="M1089 540 a3 3 0 1 0 6 0 a3 3 0 1 0 -6 0zM1185 468 a3 3 0 1 0 6 0 a3 3 0 1 0 -6 0z" fill="black"></path><path d="M369 516 a3 3 0 1 0 6 0 a3 3 0 1 0 -6 0zM537 564 a3 3 0 1 0 6 0 a3 3 0 1 0 -6 0z" fill="black"></path><path d="M993 108 a3 3 0 1 0 6 0 a3 3 0 1 0 -6 0zM1161 36 a3 3 0 1 0 6 0 a3 3 0 1 0 -6 0z" fill="black"></path><path d="M321 204 a3 3 0 1 0 6 0 a3 3 0 1 0 -6 0zM321 324 a3 3 0 1 0 6 0 a3 3 0 1 0 -6 0z" fill="black"></path><path d="M1233 276 a3 3 0 1 0 6 0 a3 3 0 1 0 -6 0zM1425 420 a3 3 0 1 0 6 0 a3 3 0 1 0 -6 0z" fill="black"></path><path d="M705 420 a3 3 0 1 0 6 0 a3 3 0 1 0 -6 0zM1089 252 a3 3 0 1 0 6 0 a3 3 0 1 0 -6 0z" fill="black"></path><path d="M849 132 a3 3 0 1 0 6 0 a3 3 0 1 0 -6 0zM993 156 a3 3 0 1 0 6 0 a3 3 0 1 0 -6 0z" fill="black"></path><path d="M609 516 a3 3 0 1 0 6 0 a3 3 0 1 0 -6 0zM657 468 a3 3 0 1 0 6 0 a3 3 0 1 0 -6 0z" fill="black"></path><path d="M1281 324 a3 3 0 1 0 6 0 a3 3 0 1 0 -6 0zM1257 204 a3 3 0 1 0 6 0 a3 3 0 1 0 -6 0z" fill="black"></path><path d="M1185 516 a3 3 0 1 0 6 0 a3 3 0 1 0 -6 0zM1257 540 a3 3 0 1 0 6 0 a3 3 0 1 0 -6 0z" fill="black"></path><path d="M249 324 a3 3 0 1 0 6 0 a3 3 0 1 0 -6 0zM297 324 a3 3 0 1 0 6 0 a3 3 0 1 0 -6 0z" fill="black"></path><path d="M1065 36 a3 3 0 1 0 6 0 a3 3 0 1 0 -6 0zM1137 36 a3 3 0 1 0 6 0 a3 3 0 1 0 -6 0z" fill="black"></path><path d="M753 12 a3 3 0 1 0 6 0 a3 3 0 1 0 -6 0zM681 12 a3 3 0 1 0 6 0 a3 3 0 1 0 -6 0z" fill="black"></path><path d="M393 228 a3 3 0 1 0 6 0 a3 3 0 1 0 -6 0zM585 108 a3 3 0 1 0 6 0 a3 3 0 1 0 -6 0z" fill="black"></path><path d="M945 36 a3 3 0 1 0 6 0 a3 3 0 1 0 -6 0zM681 60 a3 3 0 1 0 6 0 a3 3 0 1 0 -6 0z" fill="black"></path><path d="M441 372 a3 3 0 1 0 6 0 a3 3 0 1 0 -6 0zM489 420 a3 3 0 1 0 6 0 a3 3 0 1 0 -6 0z" fill="black"></path><path d="M177 468 a3 3 0 1 0 6 0 a3 3 0 1 0 -6 0zM33 564 a3 3 0 1 0 6 0 a3 3 0 1 0 -6 0z" fill="black"></path><path d="M1017 396 a3 3 0 1 0 6 0 a3 3 0 1 0 -6 0zM1089 300 a3 3 0 1 0 6 0 a3 3 0 1 0 -6 0z" fill="black"></path><path d="M393 348 a3 3 0 1 0 6 0 a3 3 0 1 0 -6 0zM441 348 a3 3 0 1 0 6 0 a3 3 0 1 0 -6 0z" fill="black"></path><path d="M705 348 a3 3 0 1 0 6 0 a3 3 0 1 0 -6 0zM633 372 a3 3 0 1 0 6 0 a3 3 0 1 0 -6 0z" fill="black"></path><path d="M201 228 a3 3 0 1 0 6 0 a3 3 0 1 0 -6 0zM321 132 a3 3 0 1 0 6 0 a3 3 0 1 0 -6 0z" fill="black"></path><path d="M225 36 a3 3 0 1 0 6 0 a3 3 0 1 0 -6 0zM321 36 a3 3 0 1 0 6 0 a3 3 0 1 0 -6 0z" fill="black"></path><path d="M945 108 a3 3 0 1 0 6 0 a3 3 0 1 0 -6 0zM753 60 a3 3 0 1 0 6 0 a3 3 0 1 0 -6 0z" fill="black"></path><path d="M81 204 a3 3 0 1 0 6 0 a3 3 0 1 0 -6 0zM9 348 a3 3 0 1 0 6 0 a3 3 0 1 0 -6 0z" fill="black"></path><path d="M585 60 a3 3 0 1 0 6 0 a3 3 0 1 0 -6 0zM633 12 a3 3 0 1 0 6 0 a3 3 0 1 0 -6 0z" fill="black"></path><path d="M33 156 a3 3 0 1 0 6 0 a3 3 0 1 0 -6 0zM9 276 a3 3 0 1 0 6 0 a3 3 0 1 0 -6 0z" fill="black"></path><path d="M297 492 a3 3 0 1 0 6 0 a3 3 0 1 0 -6 0zM201 444 a3 3 0 1 0 6 0 a3 3 0 1 0 -6 0z" fill="black"></path><path d="M897 276 a3 3 0 1 0 6 0 a3 3 0 1 0 -6 0zM801 396 a3 3 0 1 0 6 0 a3 3 0 1 0 -6 0z" fill="black"></path><path d="M1353 444 a3 3 0 1 0 6 0 a3 3 0 1 0 -6 0zM1425 444 a3 3 0 1 0 6 0 a3 3 0 1 0 -6 0z" fill="black"></path><path d="M1401 132 a3 3 0 1 0 6 0 a3 3 0 1 0 -6 0zM1425 228 a3 3 0 1 0 6 0 a3 3 0 1 0 -6 0z" fill="black"></path><path d="M105 132 a3 3 0 1 0 6 0 a3 3 0 1 0 -6 0zM249 60 a3 3 0 1 0 6 0 a3 3 0 1 0 -6 0z" fill="black"></path><path d="M1353 156 a3 3 0 1 0 6 0 a3 3 0 1 0 -6 0zM1353 60 a3 3 0 1 0 6 0 a3 3 0 1 0 -6 0z" fill="black"></path><path d="M633 180 a3 3 0 1 0 6 0 a3 3 0 1 0 -6 0zM657 132 a3 3 0 1 0 6 0 a3 3 0 1 0 -6 0z" fill="black"></path><path d="M417 84 a3 3 0 1 0 6 0 a3 3 0 1 0 -6 0zM609 12 a3 3 0 1 0 6 0 a3 3 0 1 0 -6 0z" fill="black"></path><path d="M537 84 a3 3 0 1 0 6 0 a3 3 0 1 0 -6 0zM465 84 a3 3 0 1 0 6 0 a3 3 0 1 0 -6 0z" fill="black"></path><path d="M297 300 a3 3 0 1 0 6 0 a3 3 0 1 0 -6 0zM225 228 a3 3 0 1 0 6 0 a3 3 0 1 0 -6 0z" fill="black"></path><path d="M969 348 a3 3 0 1 0 6 0 a3 3 0 1 0 -6 0zM897 420 a3 3 0 1 0 6 0 a3 3 0 1 0 -6 0z" fill="black"></path><path d="M897 564 a3 3 0 1 0 6 0 a3 3 0 1 0 -6 0zM1017 540 a3 3 0 1 0 6 0 a3 3 0 1 0 -6 0z" fill="black"></path><path d="M873 252 a3 3 0 1 0 6 0 a3 3 0 1 0 -6 0zM945 252 a3 3 0 1 0 6 0 a3 3 0 1 0 -6 0z" fill="black"></path><path d="M1329 156 a3 3 0 1 0 6 0 a3 3 0 1 0 -6 0zM1257 156 a3 3 0 1 0 6 0 a3 3 0 1 0 -6 0z" fill="black"></path><path d="M561 228 a3 3 0 1 0 6 0 a3 3 0 1 0 -6 0zM369 108 a3 3 0 1 0 6 0 a3 3 0 1 0 -6 0z" fill="black"></path><path d="M777 516 a3 3 0 1 0 6 0 a3 3 0 1 0 -6 0zM753 564 a3 3 0 1 0 6 0 a3 3 0 1 0 -6 0z" fill="black"></path><path d="M993 84 a3 3 0 1 0 6 0 a3 3 0 1 0 -6 0zM921 60 a3 3 0 1 0 6 0 a3 3 0 1 0 -6 0z" fill="black"></path><path d="M1377 324 a3 3 0 1 0 6 0 a3 3 0 1 0 -6 0zM1281 204 a3 3 0 1 0 6 0 a3 3 0 1 0 -6 0z" fill="black"></path><path d="M1305 252 a3 3 0 1 0 6 0 a3 3 0 1 0 -6 0zM1329 348 a3 3 0 1 0 6 0 a3 3 0 1 0 -6 0z" fill="black"></path><path d="M1305 300 a3 3 0 1 0 6 0 a3 3 0 1 0 -6 0zM1353 276 a3 3 0 1 0 6 0 a3 3 0 1 0 -6 0z" fill="black"></path><path d="M105 516 a3 3 0 1 0 6 0 a3 3 0 1 0 -6 0zM201 492 a3 3 0 1 0 6 0 a3 3 0 1 0 -6 0z" fill="black"></path><path d="M633 444 a3 3 0 1 0 6 0 a3 3 0 1 0 -6 0zM513 468 a3 3 0 1 0 6 0 a3 3 0 1 0 -6 0z" fill="black"></path><path d="M177 564 a3 3 0 1 0 6 0 a3 3 0 1 0 -6 0zM129 516 a3 3 0 1 0 6 0 a3 3 0 1 0 -6 0z" fill="black"></path><path d="M1017 420 a3 3 0 1 0 6 0 a3 3 0 1 0 -6 0zM1017 492 a3 3 0 1 0 6 0 a3 3 0 1 0 -6 0z" fill="black"></path><path d="M537 180 a3 3 0 1 0 6 0 a3 3 0 1 0 -6 0zM489 156 a3 3 0 1 0 6 0 a3 3 0 1 0 -6 0z" fill="black"></path><path d="M585 444 a3 3 0 1 0 6 0 a3 3 0 1 0 -6 0zM537 468 a3 3 0 1 0 6 0 a3 3 0 1 0 -6 0z" fill="black"></path><path d="M369 252 a3 3 0 1 0 6 0 a3 3 0 1 0 -6 0zM369 132 a3 3 0 1 0 6 0 a3 3 0 1 0 -6 0z" fill="black"></path><path d="M177 228 a3 3 0 1 0 6 0 a3 3 0 1 0 -6 0zM201 180 a3 3 0 1 0 6 0 a3 3 0 1 0 -6 0z" fill="black"></path><path d="M825 252 a3 3 0 1 0 6 0 a3 3 0 1 0 -6 0zM897 324 a3 3 0 1 0 6 0 a3 3 0 1 0 -6 0z" fill="black"></path><path d="M1353 468 a3 3 0 1 0 6 0 a3 3 0 1 0 -6 0zM1329 396 a3 3 0 1 0 6 0 a3 3 0 1 0 -6 0z" fill="black"></path><path d="M297 564 a3 3 0 1 0 6 0 a3 3 0 1 0 -6 0zM321 516 a3 3 0 1 0 6 0 a3 3 0 1 0 -6 0z" fill="black"></path><path d="M345 252 a3 3 0 1 0 6 0 a3 3 0 1 0 -6 0zM465 300 a3 3 0 1 0 6 0 a3 3 0 1 0 -6 0z" fill="black"></path><path d="M33 204 a3 3 0 1 0 6 0 a3 3 0 1 0 -6 0zM153 156 a3 3 0 1 0 6 0 a3 3 0 1 0 -6 0z" fill="black"></path><path d="M729 348 a3 3 0 1 0 6 0 a3 3 0 1 0 -6 0zM633 348 a3 3 0 1 0 6 0 a3 3 0 1 0 -6 0z" fill="black"></path><path d="M321 396 a3 3 0 1 0 6 0 a3 3 0 1 0 -6 0zM369 372 a3 3 0 1 0 6 0 a3 3 0 1 0 -6 0z" fill="black"></path><path d="M393 60 a3 3 0 1 0 6 0 a3 3 0 1 0 -6 0zM441 36 a3 3 0 1 0 6 0 a3 3 0 1 0 -6 0z" fill="black"></path><path d="M465 204 a3 3 0 1 0 6 0 a3 3 0 1 0 -6 0zM513 252 a3 3 0 1 0 6 0 a3 3 0 1 0 -6 0z" fill="black"></path><path d="M1065 108 a3 3 0 1 0 6 0 a3 3 0 1 0 -6 0zM1017 108 a3 3 0 1 0 6 0 a3 3 0 1 0 -6 0z" fill="black"></path><path d="M1041 60 a3 3 0 1 0 6 0 a3 3 0 1 0 -6 0zM1113 60 a3 3 0 1 0 6 0 a3 3 0 1 0 -6 0z" fill="black"></path><path d="M609 180 a3 3 0 1 0 6 0 a3 3 0 1 0 -6 0zM633 132 a3 3 0 1 0 6 0 a3 3 0 1 0 -6 0z" fill="black"></path><path d="M1329 540 a3 3 0 1 0 6 0 a3 3 0 1 0 -6 0zM1425 516 a3 3 0 1 0 6 0 a3 3 0 1 0 -6 0z" fill="black"></path><path d="M1065 420 a3 3 0 1 0 6 0 a3 3 0 1 0 -6 0zM1113 348 a3 3 0 1 0 6 0 a3 3 0 1 0 -6 0z" fill="black"></path><path d="M273 396 a3 3 0 1 0 6 0 a3 3 0 1 0 -6 0zM201 396 a3 3 0 1 0 6 0 a3 3 0 1 0 -6 0z" fill="black"></path><path d="M1425 156 a3 3 0 1 0 6 0 a3 3 0 1 0 -6 0zM1425 204 a3 3 0 1 0 6 0 a3 3 0 1 0 -6 0z" fill="black"></path><path d="M681 516 a3 3 0 1 0 6 0 a3 3 0 1 0 -6 0zM753 492 a3 3 0 1 0 6 0 a3 3 0 1 0 -6 0z" fill="black"></path><path d="M129 564 a3 3 0 1 0 6 0 a3 3 0 1 0 -6 0zM57 564 a3 3 0 1 0 6 0 a3 3 0 1 0 -6 0z" fill="black"></path><path d="M993 420 a3 3 0 1 0 6 0 a3 3 0 1 0 -6 0zM849 540 a3 3 0 1 0 6 0 a3 3 0 1 0 -6 0z" fill="black"></path><path d="M105 84 a3 3 0 1 0 6 0 a3 3 0 1 0 -6 0zM81 36 a3 3 0 1 0 6 0 a3 3 0 1 0 -6 0z" fill="black"></path><path d="M297 276 a3 3 0 1 0 6 0 a3 3 0 1 0 -6 0zM297 180 a3 3 0 1 0 6 0 a3 3 0 1 0 -6 0z" fill="black"></path><path d="M1425 84 a3 3 0 1 0 6 0 a3 3 0 1 0 -6 0zM1425 36 a3 3 0 1 0 6 0 a3 3 0 1 0 -6 0z" fill="black"></path><path d="M201 540 a3 3 0 1 0 6 0 a3 3 0 1 0 -6 0zM153 516 a3 3 0 1 0 6 0 a3 3 0 1 0 -6 0z" fill="black"></path><path d="M537 204 a3 3 0 1 0 6 0 a3 3 0 1 0 -6 0zM609 204 a3 3 0 1 0 6 0 a3 3 0 1 0 -6 0z" fill="black"></path><path d="M129 84 a3 3 0 1 0 6 0 a3 3 0 1 0 -6 0zM129 36 a3 3 0 1 0 6 0 a3 3 0 1 0 -6 0z" fill="black"></path><path d="M1089 348 a3 3 0 1 0 6 0 a3 3 0 1 0 -6 0zM1089 396 a3 3 0 1 0 6 0 a3 3 0 1 0 -6 0z" fill="black"></path><path d="M1065 348 a3 3 0 1 0 6 0 a3 3 0 1 0 -6 0zM1065 396 a3 3 0 1 0 6 0 a3 3 0 1 0 -6 0z" fill="black"></path><path d="M321 372 a3 3 0 1 0 6 0 a3 3 0 1 0 -6 0zM225 372 a3 3 0 1 0 6 0 a3 3 0 1 0 -6 0z" fill="black"></path><path d="M225 300 a3 3 0 1 0 6 0 a3 3 0 1 0 -6 0zM153 300 a3 3 0 1 0 6 0 a3 3 0 1 0 -6 0z" fill="black"></path><path d="M153 252 a3 3 0 1 0 6 0 a3 3 0 1 0 -6 0zM249 276 a3 3 0 1 0 6 0 a3 3 0 1 0 -6 0z" fill="black"></path><path d="M681 300 a3 3 0 1 0 6 0 a3 3 0 1 0 -6 0zM657 348 a3 3 0 1 0 6 0 a3 3 0 1 0 -6 0z" fill="black"></path><path d="M609 444 a3 3 0 1 0 6 0 a3 3 0 1 0 -6 0zM561 492 a3 3 0 1 0 6 0 a3 3 0 1 0 -6 0z" fill="black"></path><path d="M537 60 a3 3 0 1 0 6 0 a3 3 0 1 0 -6 0zM465 60 a3 3 0 1 0 6 0 a3 3 0 1 0 -6 0z" fill="black"></path><path d="M1065 84 a3 3 0 1 0 6 0 a3 3 0 1 0 -6 0zM1017 84 a3 3 0 1 0 6 0 a3 3 0 1 0 -6 0z" fill="black"></path><path d="M729 36 a3 3 0 1 0 6 0 a3 3 0 1 0 -6 0zM681 36 a3 3 0 1 0 6 0 a3 3 0 1 0 -6 0z" fill="black"></path><path d="M57 180 a3 3 0 1 0 6 0 a3 3 0 1 0 -6 0zM81 132 a3 3 0 1 0 6 0 a3 3 0 1 0 -6 0z" fill="black"></path><path d="M1425 468 a3 3 0 1 0 6 0 a3 3 0 1 0 -6 0zM1377 468 a3 3 0 1 0 6 0 a3 3 0 1 0 -6 0z" fill="black"></path><path d="M1329 228 a3 3 0 1 0 6 0 a3 3 0 1 0 -6 0zM1281 300 a3 3 0 1 0 6 0 a3 3 0 1 0 -6 0z" fill="black"></path><path d="M345 444 a3 3 0 1 0 6 0 a3 3 0 1 0 -6 0zM297 468 a3 3 0 1 0 6 0 a3 3 0 1 0 -6 0z" fill="black"></path><path d="M393 204 a3 3 0 1 0 6 0 a3 3 0 1 0 -6 0zM393 156 a3 3 0 1 0 6 0 a3 3 0 1 0 -6 0z" fill="black"></path><path d="M201 324 a3 3 0 1 0 6 0 a3 3 0 1 0 -6 0zM153 324 a3 3 0 1 0 6 0 a3 3 0 1 0 -6 0z" fill="black"></path><path d="M393 252 a3 3 0 1 0 6 0 a3 3 0 1 0 -6 0zM441 276 a3 3 0 1 0 6 0 a3 3 0 1 0 -6 0z" fill="black"></path><path d="M1233 252 a3 3 0 1 0 6 0 a3 3 0 1 0 -6 0zM1233 204 a3 3 0 1 0 6 0 a3 3 0 1 0 -6 0z" fill="black"></path><path d="M849 492 a3 3 0 1 0 6 0 a3 3 0 1 0 -6 0zM801 492 a3 3 0 1 0 6 0 a3 3 0 1 0 -6 0z" fill="black"></path><path d="M1329 564 a3 3 0 1 0 6 0 a3 3 0 1 0 -6 0zM1377 540 a3 3 0 1 0 6 0 a3 3 0 1 0 -6 0z" fill="black"></path><path d="M1401 36 a3 3 0 1 0 6 0 a3 3 0 1 0 -6 0zM1401 84 a3 3 0 1 0 6 0 a3 3 0 1 0 -6 0z" fill="black"></path><path d="M129 372 a3 3 0 1 0 6 0 a3 3 0 1 0 -6 0zM129 420 a3 3 0 1 0 6 0 a3 3 0 1 0 -6 0z" fill="black"></path></mask></defs></svg>