<svg xmlns="http://www.w3.org/2000/svg" version="1.1" xmlns:xlink="http://www.w3.org/1999/xlink" xmlns:svgjs="http://svgjs.dev/svgjs" width="1440" height="250" preserveAspectRatio="none" viewBox="0 0 1440 250"><g mask="url(&quot;#SvgjsMask1011&quot;)" fill="none"><rect width="1440" height="250" x="0" y="0" fill="#0e2a47"></rect><path d="M6 250L256 0L404.5 0L154.5 250z" fill="url(&quot;#SvgjsLinearGradient1012&quot;)"></path><path d="M264.6 250L514.6 0L750.1 0L500.1 250z" fill="url(&quot;#SvgjsLinearGradient1012&quot;)"></path><path d="M485.20000000000005 250L735.2 0L1033.7 0L783.7 250z" fill="url(&quot;#SvgjsLinearGradient1012&quot;)"></path><path d="M745.8000000000001 250L995.8000000000001 0L1102.3000000000002 0L852.3000000000001 250z" fill="url(&quot;#SvgjsLinearGradient1012&quot;)"></path><path d="M1426 250L1176 0L931.5 0L1181.5 250z" fill="url(&quot;#SvgjsLinearGradient1013&quot;)"></path><path d="M1170.4 250L920.4000000000001 0L618.9000000000001 0L868.9000000000001 250z" fill="url(&quot;#SvgjsLinearGradient1013&quot;)"></path><path d="M925.8 250L675.8 0L332.29999999999995 0L582.3 250z" fill="url(&quot;#SvgjsLinearGradient1013&quot;)"></path><path d="M688.1999999999999 250L438.19999999999993 0L226.69999999999993 0L476.69999999999993 250z" fill="url(&quot;#SvgjsLinearGradient1013&quot;)"></path><path d="M1289.6355944618574 250L1440 99.6355944618575L1440 250z" fill="url(&quot;#SvgjsLinearGradient1012&quot;)"></path><path d="M0 250L150.3644055381425 250L 0 99.6355944618575z" fill="url(&quot;#SvgjsLinearGradient1013&quot;)"></path></g><defs><mask id="SvgjsMask1011"><rect width="1440" height="250" fill="#ffffff"></rect></mask><linearGradient x1="0%" y1="100%" x2="100%" y2="0%" id="SvgjsLinearGradient1012"><stop stop-color="rgba(15, 70, 185, 0.2)" offset="0"></stop><stop stop-opacity="0" stop-color="rgba(15, 70, 185, 0.2)" offset="0.66"></stop></linearGradient><linearGradient x1="100%" y1="100%" x2="0%" y2="0%" id="SvgjsLinearGradient1013"><stop stop-color="rgba(15, 70, 185, 0.2)" offset="0"></stop><stop stop-opacity="0" stop-color="rgba(15, 70, 185, 0.2)" offset="0.66"></stop></linearGradient></defs></svg>