<!DOCTYPE svg PUBLIC "-//W3C//DTD SVG 1.1//EN" "http://www.w3.org/Graphics/SVG/1.1/DTD/svg11.dtd">
<!-- Uploaded to: SVG Repo, www.svgrepo.com, Transformed by: SVG Repo Mixer Tools -->
<svg width="110px" height="110px" viewBox="-112.64 -112.64 1249.28 1249.28" xmlns="http://www.w3.org/2000/svg" fill="#000000" transform="matrix(-1, 0, 0, 1, 0, 0)">
<g id="SVGRepo_bgCarrier" stroke-width="0" transform="translate(0,0), scale(1)">
<path transform="translate(-112.64, -112.64), scale(78.08)" fill="#f2f2f2" d="M9.166.33a2.25 2.25 0 00-2.332 0l-5.25 3.182A2.25 2.25 0 00.5 5.436v5.128a2.25 2.25 0 001.084 1.924l5.25 3.182a2.25 2.25 0 002.332 0l5.25-3.182a2.25 2.25 0 001.084-1.924V5.436a2.25 2.25 0 00-1.084-1.924L9.166.33z" strokewidth="0"/>
</g>
<g id="SVGRepo_tracerCarrier" stroke-linecap="round" stroke-linejoin="round" stroke="#CCCCCC" stroke-width="51.2">
<path fill="#5264E3" d="M512 160c320 0 512 352 512 352S832 864 512 864 0 512 0 512s192-352 512-352zm0 64c-225.28 0-384.128 208.064-436.8 288 52.608 79.872 211.456 288 436.8 288 225.28 0 384.128-208.064 436.8-288-52.608-79.872-211.456-288-436.8-288zm0 64a224 224 0 1 1 0 448 224 224 0 0 1 0-448zm0 64a160.192 160.192 0 0 0-160 160c0 88.192 71.744 160 160 160s160-71.808 160-160-71.744-160-160-160z"/>
</g>
<g id="SVGRepo_iconCarrier">
<path fill="#5264E3" d="M512 160c320 0 512 352 512 352S832 864 512 864 0 512 0 512s192-352 512-352zm0 64c-225.28 0-384.128 208.064-436.8 288 52.608 79.872 211.456 288 436.8 288 225.28 0 384.128-208.064 436.8-288-52.608-79.872-211.456-288-436.8-288zm0 64a224 224 0 1 1 0 448 224 224 0 0 1 0-448zm0 64a160.192 160.192 0 0 0-160 160c0 88.192 71.744 160 160 160s160-71.808 160-160-71.744-160-160-160z"/>
</g>
</svg>